<svg width="100%" height="100%" viewBox="0 0 1024 1024" xmlns="http://www.w3.org/2000/svg" style="fill-rule:evenodd;clip-rule:evenodd;stroke-linecap:round;stroke-linejoin:round;stroke-miterlimit:1.5;">
    <rect x="0" y="0" width="1024" height="1024" style="fill:none;"/>
	<path d="M972,190l-0,644c-0,76.164 -61.836,138 -138,138l-644,0c-76.164,0 -138,-61.836 -138,-138l-0,-644c-0,-76.164 61.836,-138 138,-138l644,-0c76.164,-0 138,61.836 138,138Z" style="fill:#dc4e26;"/>
	<path d="M711.63,972l-521.63,0c-76.164,0 -138,-61.836 -138,-138l-0,-644c-0,-32.235 11.076,-61.903 29.627,-85.403l505.077,132.631c157.229,42.82 250.115,205.235 207.295,362.465l-82.369,372.307Z" style="fill:#e16122;"/>
	<ellipse cx="512" cy="512" rx="329.975" ry="329.376" style="fill:#f6e8ea;"/>
	<ellipse cx="512" cy="512" rx="329.975" ry="329.376" style="fill:none;stroke:#22181c;stroke-width:34px;"/>
	<path d="M410.853,363.637c27.074,-15.89 50.593,-29.155 89.132,-33.574c49.617,-5.688 116.386,13.634 151.498,48.705c26.11,26.079 33.824,83.62 -18.82,90.092c-27.232,3.348 -52.342,-19.767 -67.47,-28.878c-89.174,-53.706 -189.451,56.589 -104.591,141.704c33.807,33.91 68.659,31.963 109.827,7.637c16.449,-9.72 37.866,-32.771 58.866,-27.978c37.721,8.61 52.7,62.696 29.133,86.884c-78.187,80.246 -199.087,72.279 -268.812,7.994c-63.579,-58.618 -73.845,-131.892 -53.057,-198.379c18.916,-60.504 50.45,-80.212 74.294,-94.207Z" style="fill:#22181c;fill-opacity:0.45;fill-rule:nonzero;"/>
	<path d="M456.856,342.816c-1.651,-2.868 -2.789,-5.572 -3.733,-8.732l0.075,-0.726c3.699,-31.881 81.88,-23.65 103.068,-20.312c55.258,8.705 144.082,51.6 132.909,120.35c-5.672,34.907 -42.34,63.075 -77.843,56.641c-39.352,-7.133 -47.675,-45.255 -96.023,-44.018c-54.711,1.401 -84.854,66.781 -54.17,110.308c22.798,32.342 69.344,39.153 101.283,16.066c21.899,-15.829 34.735,-33.549 67.3,-28.591c39.501,6.015 65.52,42.83 58.87,81.896c-4.332,25.455 -23.351,43.853 -43.707,58.092c-156.964,109.788 -365.861,-20.082 -332.002,-202.148c3.507,-18.854 21.929,-100.179 53.653,-80.839c14.303,14.341 1.971,26.8 -4.979,41.113c-30.428,62.679 -19.298,143.743 29.388,194.132c65.892,68.196 182.116,72.517 250.728,5.545c24.167,-23.592 14.971,-59.427 -15.569,-63.258c-21.374,-2.681 -34.173,17.992 -50.622,27.712c-41.168,24.326 -97.562,17.513 -131.368,-16.397c-84.861,-85.115 21.533,-228.593 131.983,-162.41c15.148,9.077 25.906,27.874 45.131,28.082c35.551,0.381 45.993,-38.795 19.883,-64.873c-35.112,-35.071 -100.83,-53.2 -149.902,-43.927c-13.54,2.56 -23.349,7.277 -34.353,-3.706Zm-59.627,32.655c-14.435,-16.21 -4.656,-36.748 21.248,-30.731c2.316,2.829 4.295,5.663 6.183,8.794c3.875,17.914 -9.639,30.37 -27.431,21.937Z" style="fill:#22181c;"/>
</svg>