<?xml version="1.0" encoding="UTF-8" standalone="no"?>
<!DOCTYPE svg PUBLIC "-//W3C//DTD SVG 1.1//EN" "http://www.w3.org/Graphics/SVG/1.1/DTD/svg11.dtd">
<svg width="100%" height="100%" viewBox="0 0 1024 1024" version="1.1" xmlns="http://www.w3.org/2000/svg" xmlns:xlink="http://www.w3.org/1999/xlink" xml:space="preserve" xmlns:serif="http://www.serif.com/" style="fill-rule:evenodd;clip-rule:evenodd;stroke-linejoin:round;stroke-miterlimit:2;">
    <rect id="Logo" x="0" y="0" width="1024" height="1024" style="fill:none;"/>
    <g id="Logo1" serif:id="Logo">
        <g id="background">
            <path id="background1" serif:id="background" d="M972,190l-0,644c-0,76.164 -61.836,138 -138,138l-644,0c-76.164,0 -138,-61.836 -138,-138l-0,-644c-0,-76.164 61.836,-138 138,-138l644,-0c76.164,-0 138,61.836 138,138Z" style="fill:#22181c;"/>
            <path d="M731.32,972l-541.32,0c-76.164,0 -138,-61.836 -138,-138l-0,-644c-0,-44.612 21.215,-84.308 54.098,-109.542l505.606,132.77c157.229,42.82 250.115,205.235 207.295,362.465l-87.679,396.307Z" style="fill:#d0aaaf;fill-opacity:0.15;"/>
        </g>
        <g id="Logo2" serif:id="Logo">
            <path d="M256.29,187.633c0,0 220.095,-24.632 395.715,-44.305c142.461,-15.958 144.492,7.832 147.533,36.962c5.132,49.172 17.245,171.795 24.454,239.316c1.538,14.41 11.125,102.476 12.322,117.242c7.235,89.185 23.052,208.269 23.052,208.269c6.075,69.603 2.892,80.581 -60.134,87.741l-526.878,57.168c-31.092,3.268 -42.131,-28.552 -46.348,-71.368l-58.848,-559.737c-2.314,-51.706 18.351,-63.176 89.132,-71.288Z" style="fill:#d0aaaf;fill-opacity:0.75;fill-rule:nonzero;"/>
            <path d="M218.763,762.851c18.906,-1.715 22.737,22.521 5.905,27.86c-20.02,2.896 -24.89,-23.286 -5.905,-27.86Zm617.563,-226.005c24.854,-2.744 21.269,29.923 23.102,47.536l16.402,156.459c3.74,35.676 16.225,85.245 -29.136,101.133c-14.513,5.083 -84.126,10.883 -84.126,10.883c-13.332,1.438 -31.739,6.988 -37.056,-10.152c0.162,-20.69 17.796,-17.699 32.675,-19.235l53.617,-5.625c53.613,-5.518 39.524,-25.113 34.604,-71.366l-17.948,-170.596c-1.388,-12.777 -7.612,-32.754 7.866,-39.037Zm-667.073,-245.058c21.523,-2.381 18.514,29.549 19.922,42.933l36.178,344.107c1.552,14.735 10.363,43.936 -7.227,49.638c-23.839,4.645 -20.549,-37.114 -22.156,-52.367c-0,-0 -36.441,-339.231 -38.748,-367.958c-0.738,-9.195 3.726,-13.306 12.031,-16.353Zm56.099,533.752c35.762,3.867 -3.97,58.968 57.902,47.858l376.972,-39.658c15.071,-1.674 26.783,-4.031 29.368,14.576c-0.978,4.775 -3.564,9.807 -8.091,12.032c-5.779,2.84 -344.338,37.08 -344.338,37.08c-38.325,4.218 -108.19,24.129 -121.005,-30.434c-3.955,-16.841 -8.323,-33.867 9.192,-41.454Zm-7.222,-617.597c-10.75,0.987 -27.142,0.194 -34.721,8.95c-10.201,11.787 1.203,26.768 -7.429,36.653c-4.736,5.422 -15.296,5.995 -20.606,1.14c-5.935,-5.426 -6.362,-16.057 -6.507,-23.57c-0.931,-48.197 43.204,-50.383 77.22,-53.923c0,0 529.548,-56.415 538.491,-56.441c51.985,-0.151 51.28,48.707 55.055,85.026l17.279,164.266c1.867,17.649 12.45,47.772 -12.908,49.56c-19.22,-3.271 -16.171,-40.2 -17.843,-56.241l-18.481,-175.93c-3.79,-36.617 -4.746,-39.173 -45.765,-34.542c-5.553,1.068 -523.785,55.052 -523.785,55.052Z" style="fill:#d0aaaf;"/>
            <circle cx="518.216" cy="512.1" r="246.91" style="fill:#fff;"/>
            <path d="M429.488,377.358c23.687,-13.928 44.265,-25.555 77.982,-29.428c43.412,-4.986 101.828,11.951 132.548,42.691c22.844,22.858 29.594,73.293 -16.465,78.966c-23.826,2.935 -45.795,-17.326 -59.031,-25.312c-78.02,-47.074 -165.754,49.601 -91.508,124.205c29.578,29.722 60.071,28.016 96.089,6.694c14.392,-8.52 33.13,-28.724 51.503,-24.523c33.002,7.546 46.108,54.954 25.489,76.155c-68.407,70.336 -174.184,63.353 -235.188,7.006c-55.626,-51.379 -64.608,-115.604 -46.421,-173.881c16.551,-53.032 44.14,-70.306 65.002,-82.573Z" style="fill:#fe7d02;fill-rule:nonzero;"/>
            <path d="M469.736,359.109c-1.444,-2.514 -2.44,-4.884 -3.266,-7.654l0.066,-0.636c3.236,-27.944 71.638,-20.73 90.176,-17.804c48.346,7.63 126.06,45.228 116.284,105.488c-4.962,30.596 -37.044,55.286 -68.106,49.646c-34.43,-6.252 -41.712,-39.666 -84.012,-38.582c-47.868,1.228 -74.24,58.534 -47.394,96.686c19.946,28.348 60.67,34.318 88.614,14.082c19.16,-13.874 30.39,-29.406 58.882,-25.06c34.56,5.272 57.324,37.54 51.506,71.782c-3.79,22.312 -20.43,38.438 -38.24,50.918c-137.33,96.23 -320.098,-17.602 -290.474,-177.184c3.068,-16.526 19.186,-87.808 46.942,-70.856c12.514,12.57 1.724,23.49 -4.356,36.036c-26.622,54.938 -16.884,125.992 25.712,170.158c57.65,59.774 159.336,63.562 219.366,4.86c21.144,-20.678 13.098,-52.088 -13.622,-55.446c-18.7,-2.35 -29.898,15.77 -44.29,24.29c-36.018,21.322 -85.358,15.35 -114.936,-14.372c-74.246,-74.604 18.84,-200.364 115.474,-142.354c13.254,7.956 22.666,24.432 39.486,24.614c31.104,0.334 40.24,-34.004 17.396,-56.862c-30.72,-30.74 -88.218,-46.63 -131.152,-38.502c-11.846,2.244 -20.428,6.378 -30.056,-3.248Zm-52.168,28.622c-12.63,-14.208 -4.074,-32.21 18.59,-26.936c2.026,2.48 3.758,4.964 5.41,7.708c3.39,15.702 -8.434,26.62 -24,19.228Z" style="fill:#22181c;"/>
        </g>
    </g>
</svg>
